<svg width="40" height="40" fill="none" xmlns="http://www.w3.org/2000/svg">
  <path d="M20.196 0C26.96 0 33.81 2.994 37.429 9.205c2.725 4.68 3.423 11.19 1.419 16.326-1.273 3.336-3.963 5.601-7.47 5.601-2.532 0-4.799-1.212-5.716-3.777-1.502 2.518-3.88 3.777-7.135 3.777-5.72 0-9.64-5.196-9.64-10.985 0-5.708 3.85-10.942 9.64-10.942 2.754 0 4.896.955 6.426 2.866V9.509h5.674v14.068c0 3.08 3.069 3.688 4.257.955 1.786-3.902.959-9.687-1.127-13.243-2.797-4.934-8.263-7.164-13.561-7.164-8.508 0-15.523 6.45-15.523 15.674 0 12.902 13.08 19.294 23.576 13.895l1.335 3.995C16.646 44.569 0 35.347 0 19.799 0 7.905 9.398 0 20.196 0zm-.376 26.139c3.291 0 5.216-2.72 5.216-5.992 0-3.248-1.972-5.905-5.216-5.905-3.233 0-5.174 2.68-5.174 5.905 0 3.25 1.894 5.992 5.174 5.992z" fill="#FFDDE5"/>
</svg>
