<svg width="40" height="40" fill="none" xmlns="http://www.w3.org/2000/svg">
  <path fill-rule="evenodd" clip-rule="evenodd" d="M2.343 2.343C0 4.686 0 8.458 0 16v8c0 7.543 0 11.314 2.343 13.657S8.458 40 16 40h2.022V25.24H13v-6.192h5.022v-5.2C18.022 10.066 21.034 7 24.75 7H30v5.568h-3.757c-1.18 0-2.138.974-2.138 2.176v4.304h5.8l-.801 6.192h-4.999V40c7.473 0 11.22-.01 13.552-2.343C40 35.314 40 31.543 40 24v-8c0-7.542 0-11.314-2.343-13.657S31.543 0 24 0h-8C8.458 0 4.686 0 2.343 2.343z" fill="#FFDDE5"/>
</svg>
