<svg width="40" height="40" fill="none" xmlns="http://www.w3.org/2000/svg">
  <path fill-rule="evenodd" clip-rule="evenodd" d="M20 0C8.95 0 0 9.176 0 20.506 0 29.58 5.725 37.244 13.675 39.96c1 .18 1.375-.436 1.375-.974 0-.487-.025-2.102-.025-3.82C10 36.117 8.7 33.913 8.3 32.759c-.225-.59-1.2-2.41-2.05-2.896-.7-.385-1.7-1.333-.025-1.359 1.575-.026 2.7 1.487 3.075 2.102 1.8 3.101 4.675 2.23 5.825 1.692.175-1.333.7-2.23 1.275-2.743-4.45-.513-9.1-2.281-9.1-10.125 0-2.23.775-4.075 2.05-5.51-.2-.513-.9-2.615.2-5.435 0 0 1.675-.538 5.5 2.102 1.6-.461 3.3-.692 5-.692 1.7 0 3.4.23 5 .692 3.825-2.666 5.5-2.102 5.5-2.102 1.1 2.82.4 4.922.2 5.434 1.275 1.436 2.05 3.256 2.05 5.511 0 7.87-4.675 9.612-9.125 10.125.725.64 1.35 1.871 1.35 3.794 0 2.742-.025 4.947-.025 5.639 0 .538.375 1.179 1.375.974C34.275 37.244 40 29.554 40 20.506 40 9.176 31.05 0 20 0z" fill="#FFDDE5"/>
</svg>
