<svg width="40" height="40" fill="none" xmlns="http://www.w3.org/2000/svg">
  <path fill-rule="evenodd" clip-rule="evenodd" d="M0 16C0 8.458 0 4.686 2.343 2.343S8.458 0 16 0h8c7.543 0 11.314 0 13.657 2.343S40 8.458 40 16v8c0 7.543 0 11.314-2.343 13.657S31.543 40 24 40h-8c-7.542 0-11.314 0-13.657-2.343S0 31.543 0 24v-8zm13.65 15V14.806H8.314V31h5.334zm-2.668-18.405c1.86 0 3.018-1.243 3.018-2.797C13.965 8.209 12.842 7 11.018 7 9.193 7 8 8.209 8 9.798c0 1.554 1.157 2.797 2.947 2.797h.035zM22.242 31H17s.069-15.052 0-16.61h5.242v2.351l-.035.058h.035v-.058C22.938 15.61 24.185 14 26.965 14 30.415 14 33 16.374 33 21.476V31h-5.241v-8.886c0-2.233-.759-3.756-2.656-3.756-1.448 0-2.31 1.027-2.689 2.019-.138.355-.172.85-.172 1.347V31z" fill="#FFDDE5"/>
</svg>
