<svg viewBox="0 0 628 209" fill="none" xmlns="http://www.w3.org/2000/svg">
<path d="M0 209V111.993L23.157 111.929V192.511H83.0702V209H0Z"/>
<path d="M87.9453 209L133.618 111.929H163.574L209.247 209H185.384L175.442 186.288H121.751L111.808 209H87.9453ZM128.679 170.441H168.514L150.168 128.354H147.089L128.679 170.441Z"/>
<path d="M322.915 146.382C322.915 151.515 322.039 156.07 320.285 160.048C318.532 163.983 315.945 167.297 312.523 169.992C309.145 172.644 304.954 174.676 299.951 176.087C294.947 177.456 289.217 178.14 282.759 178.14H245.618V209H222.654V111.929H282.631C288.96 111.929 294.626 112.592 299.63 113.918C304.633 115.244 308.846 117.169 312.267 119.692C315.731 122.216 318.361 125.317 320.157 128.995C321.996 132.631 322.915 136.78 322.915 141.442V146.382ZM299.502 142.917C299.502 140.565 299.138 138.491 298.411 136.694C297.727 134.898 296.615 133.401 295.075 132.203C293.536 130.963 291.526 130.022 289.046 129.38C286.608 128.739 283.615 128.418 280.065 128.418H245.682V161.652H278.975C286.202 161.652 291.419 160.326 294.626 157.674C297.877 154.979 299.502 151.065 299.502 145.933V142.917Z"/>
<path d="M373.175 128.482V209H350.083V128.482H326.764V111.929H396.43V128.482H373.175Z"/>
<path d="M409.644 209V111.929H499.514V128.482H432.48V151.643H492.907V168.131H432.48V192.511H499.899V209H409.644Z"/>
<path d="M628 111.929L582.584 209H551.922L506.57 111.929H530.497L565.842 193.345H568.664L604.009 111.929H628Z"/>
<path d="M100.453 34.4527C100.453 39.5854 99.5762 44.1406 97.8229 48.1184C96.0695 52.0534 93.4823 55.3682 90.0611 58.0628C86.6827 60.7147 82.4918 62.7463 77.4883 64.1578C72.4849 65.5265 66.7544 66.2109 60.297 66.2109H23.156V97.0708H0.191406V0H60.1687C66.4979 0 72.1642 0.662964 77.1676 1.98889C82.1711 3.31482 86.3834 5.23955 89.8045 7.76309C93.2685 10.2866 95.8985 13.3876 97.6946 17.066C99.5335 20.7016 100.453 24.8505 100.453 29.5126V34.4527ZM77.0393 30.9882C77.0393 28.6358 76.6758 26.5613 75.9488 24.7649C75.2646 22.9685 74.1527 21.4715 72.6132 20.2739C71.0737 19.0335 69.0637 18.0925 66.5834 17.4509C64.1458 16.8093 61.1523 16.4886 57.6028 16.4886H23.2201V49.7223H56.5123C63.7395 49.7223 68.9568 48.3964 72.1642 45.7445C75.4143 43.0499 77.0393 39.1363 77.0393 34.0036V30.9882Z"/>
<path d="M94.1024 97.0708L139.775 0H169.732L215.404 97.0708H191.541L181.599 74.3589H127.908L117.965 97.0708H94.1024ZM134.836 58.5119H174.671L156.325 16.4244H153.246L134.836 58.5119Z"/>
<path d="M321.054 0L275.638 97.0708H244.976L199.624 0H223.551L258.896 81.4163H261.718L297.063 0H321.054Z"/>
<path d="M333.883 97.0708V0H423.753V16.5527H356.72V39.7137H417.146V56.2022H356.72V80.5822H424.138V97.0708H333.883Z"/>
<path d="M444.537 97.0708V0.0641578L467.694 0V80.5822H527.607V97.0708H444.537Z"/>
</svg>
