<svg viewBox="0 0 552 547" fill="none" xmlns="http://www.w3.org/2000/svg">
<path d="M260.714 10.4137C266.918 -2.33505 285.083 -2.33503 291.286 10.4137L322.767 75.1064C327.15 84.1146 338.333 87.3982 346.891 82.19L408.349 44.7864C420.461 37.4155 435.742 47.2363 434.069 61.3152L425.576 132.758C424.393 142.706 432.026 151.514 442.041 151.759L513.965 153.52C528.139 153.867 535.685 170.391 526.665 181.33L480.896 236.84C474.523 244.569 476.181 256.106 484.474 261.727L544.028 302.093C555.764 310.048 553.179 328.028 539.677 332.354L471.163 354.308C461.623 357.364 456.781 367.966 460.718 377.178L488.995 443.334C494.567 456.371 482.671 470.099 468.974 466.439L399.467 447.866C389.789 445.279 379.984 451.581 378.316 461.459L366.337 532.4C363.976 546.38 346.547 551.498 337.003 541.013L288.572 487.81C281.828 480.402 270.173 480.402 263.429 487.81L214.998 541.013C205.454 551.498 188.024 546.38 185.664 532.4L173.685 461.459C172.017 451.581 162.212 445.279 152.533 447.866L83.0266 466.439C69.3292 470.099 57.4336 456.371 63.0059 443.334L91.2822 377.178C95.2195 367.966 90.3778 357.364 80.8375 354.308L12.3231 332.354C-1.17869 328.028 -3.76384 310.048 7.97225 302.093L67.5264 261.727C75.819 256.106 77.4777 244.569 71.1046 236.84L25.3354 181.33C16.3158 170.391 23.8619 153.867 38.0357 153.52L109.96 151.759C119.975 151.514 127.607 142.706 126.425 132.758L117.932 61.3152C116.258 47.2363 131.54 37.4155 143.651 44.7865L205.109 82.19C213.667 87.3982 224.85 84.1146 229.234 75.1064L260.714 10.4137Z" fill="var(--secondary-dark-clr)"/>
</svg>
